<svg width="64" height="39" viewBox="0 0 64 39" fill="none" xmlns="http://www.w3.org/2000/svg">
<path d="M9.63679 24.5V15.4H13.0428C13.8141 15.4 14.4771 15.5257 15.0318 15.777C15.5865 16.0197 16.0111 16.375 16.3058 16.843C16.6091 17.3023 16.7608 17.8613 16.7608 18.52C16.7608 19.1613 16.6091 19.716 16.3058 20.184C16.0111 20.6433 15.5865 20.9987 15.0318 21.25C14.4771 21.4927 13.8141 21.614 13.0428 21.614H10.1698L10.5988 21.172V24.5H9.63679ZM15.8508 24.5L13.5108 21.198H14.5508L16.9038 24.5H15.8508ZM10.5988 21.25L10.1698 20.795H13.0168C13.9268 20.795 14.6158 20.5957 15.0838 20.197C15.5605 19.7983 15.7988 19.2393 15.7988 18.52C15.7988 17.792 15.5605 17.2287 15.0838 16.83C14.6158 16.4313 13.9268 16.232 13.0168 16.232H10.1698L10.5988 15.777V21.25ZM22.6973 24.578C21.536 24.578 20.6216 24.2443 19.9543 23.577C19.287 22.9097 18.9533 21.9217 18.9533 20.613V15.4H19.9153V20.574C19.9153 21.6487 20.158 22.4417 20.6433 22.953C21.1286 23.4643 21.8133 23.72 22.6973 23.72C23.59 23.72 24.279 23.4643 24.7643 22.953C25.2496 22.4417 25.4923 21.6487 25.4923 20.574V15.4H26.4283V20.613C26.4283 21.9217 26.0947 22.9097 25.4273 23.577C24.7687 24.2443 23.8587 24.578 22.6973 24.578Z" fill="#EF7C00"/>
<line x1="32.5" y1="8" x2="32.5" y2="31" stroke="#00103D" stroke-opacity="0.12"/>
<path d="M38.34 19.469H43.15V20.288H38.34V19.469ZM38.444 23.668H43.917V24.5H37.482V15.4H43.722V16.232H38.444V23.668ZM46.1783 24.5V15.4H46.9713L53.2503 23.304H52.8343V15.4H53.7833V24.5H52.9903L46.7243 16.596H47.1403V24.5H46.1783Z" fill="#919399"/>
</svg>
